<mxfile host="app.diagrams.net" agent="Mozilla/5.0 (Windows NT 10.0; Win64; x64) AppleWebKit/537.36 (KHTML, like Gecko) Chrome/138.0.0.0 Safari/537.36" version="28.0.4">
  <diagram name="PÃ¡gina-1" id="EqEmvg61n8cQ7tBOoo30">
    <mxGraphModel dx="1389" dy="1708" grid="1" gridSize="10" guides="1" tooltips="1" connect="1" arrows="1" fold="1" page="1" pageScale="1" pageWidth="827" pageHeight="1169" math="0" shadow="0">
      <root>
        <mxCell id="0" />
        <mxCell id="1" parent="0" />
        <mxCell id="Ehv_EYqQNu7rGcU63bTF-1" value="" style="shape=cube;whiteSpace=wrap;html=1;boundedLbl=1;backgroundOutline=1;darkOpacity=0.05;darkOpacity2=0.1;size=20;rotation=0;" parent="1" vertex="1">
          <mxGeometry x="400" y="117.45" width="100" height="30" as="geometry" />
        </mxCell>
        <mxCell id="Ehv_EYqQNu7rGcU63bTF-2" value="&lt;br&gt;&lt;div&gt;IP:&lt;div&gt;&amp;nbsp;192.168.100.1&lt;/div&gt;&lt;div&gt;GATEWAY:&lt;/div&gt;&lt;div&gt;192.168.100.1/24&lt;/div&gt;&lt;div&gt;MASK:&lt;/div&gt;&lt;div&gt;255.255.255.0&lt;/div&gt;&lt;div&gt;&lt;br&gt;&lt;/div&gt;&lt;/div&gt;" style="text;strokeColor=none;align=center;fillColor=none;html=1;verticalAlign=middle;whiteSpace=wrap;rounded=0;" parent="1" vertex="1">
          <mxGeometry x="390" y="27.45" width="100" height="80" as="geometry" />
        </mxCell>
        <mxCell id="Ehv_EYqQNu7rGcU63bTF-4" value="ROUTER" style="text;strokeColor=none;align=center;fillColor=none;html=1;verticalAlign=middle;whiteSpace=wrap;rounded=0;" parent="1" vertex="1">
          <mxGeometry x="400" y="87.45" width="100" height="80" as="geometry" />
        </mxCell>
        <mxCell id="Ehv_EYqQNu7rGcU63bTF-10" value="&lt;div&gt;&lt;div&gt;IP:&lt;div&gt;192.168.100.10&lt;/div&gt;&lt;/div&gt;&lt;/div&gt;" style="text;strokeColor=none;align=center;fillColor=none;html=1;verticalAlign=middle;whiteSpace=wrap;rounded=0;" parent="1" vertex="1">
          <mxGeometry x="100" y="70" width="100" height="80" as="geometry" />
        </mxCell>
        <mxCell id="Ehv_EYqQNu7rGcU63bTF-11" value="" style="shape=cube;whiteSpace=wrap;html=1;boundedLbl=1;backgroundOutline=1;darkOpacity=0.05;darkOpacity2=0.1;size=30;" parent="1" vertex="1">
          <mxGeometry x="100" y="-10" width="130" height="30" as="geometry" />
        </mxCell>
        <mxCell id="Ehv_EYqQNu7rGcU63bTF-24" value="" style="shape=parallelogram;perimeter=parallelogramPerimeter;whiteSpace=wrap;html=1;fixedSize=1;" parent="1" vertex="1">
          <mxGeometry x="100" y="-70" width="120" height="60" as="geometry" />
        </mxCell>
        <mxCell id="Ehv_EYqQNu7rGcU63bTF-25" value="DELL" style="ellipse;whiteSpace=wrap;html=1;" parent="1" vertex="1">
          <mxGeometry x="140" y="-50" width="40" height="20" as="geometry" />
        </mxCell>
        <mxCell id="Ehv_EYqQNu7rGcU63bTF-27" value="IP:&lt;div&gt;192.168.100.17&lt;/div&gt;" style="text;strokeColor=none;align=center;fillColor=none;html=1;verticalAlign=middle;whiteSpace=wrap;rounded=0;" parent="1" vertex="1">
          <mxGeometry x="115" y="-130" width="100" height="80" as="geometry" />
        </mxCell>
        <mxCell id="Ehv_EYqQNu7rGcU63bTF-29" value="" style="shape=parallelogram;perimeter=parallelogramPerimeter;whiteSpace=wrap;html=1;fixedSize=1;rotation=-135;size=60;" parent="1" vertex="1">
          <mxGeometry x="125.42000000000002" y="-29.999999999999993" width="69.16" height="57.45" as="geometry" />
        </mxCell>
        <mxCell id="Ehv_EYqQNu7rGcU63bTF-34" value="" style="shape=cube;whiteSpace=wrap;html=1;boundedLbl=1;backgroundOutline=1;darkOpacity=0.05;darkOpacity2=0.1;" parent="1" vertex="1">
          <mxGeometry x="115" y="310" width="150" height="50" as="geometry" />
        </mxCell>
        <mxCell id="Ehv_EYqQNu7rGcU63bTF-40" value="" style="ellipse;whiteSpace=wrap;html=1;fillColor=#000000;" parent="1" vertex="1">
          <mxGeometry x="199" y="310" width="49" height="20" as="geometry" />
        </mxCell>
        <mxCell id="Ehv_EYqQNu7rGcU63bTF-41" value="ALEXA" style="ellipse;whiteSpace=wrap;html=1;aspect=fixed;" parent="1" vertex="1">
          <mxGeometry x="360" y="310" width="90" height="90" as="geometry" />
        </mxCell>
        <mxCell id="Ehv_EYqQNu7rGcU63bTF-42" value="" style="endArrow=none;html=1;rounded=0;" parent="1" edge="1">
          <mxGeometry width="50" height="50" relative="1" as="geometry">
            <mxPoint x="390" y="399" as="sourcePoint" />
            <mxPoint x="420" y="399" as="targetPoint" />
          </mxGeometry>
        </mxCell>
        <mxCell id="Ehv_EYqQNu7rGcU63bTF-44" value="" style="shape=xor;whiteSpace=wrap;html=1;rotation=90;" parent="1" vertex="1">
          <mxGeometry x="401" y="365" width="10" height="57.5" as="geometry" />
        </mxCell>
        <mxCell id="Ehv_EYqQNu7rGcU63bTF-46" value="" style="shape=xor;whiteSpace=wrap;html=1;rotation=90;" parent="1" vertex="1">
          <mxGeometry x="396" y="336.25" width="5" height="58.75" as="geometry" />
        </mxCell>
        <mxCell id="Ehv_EYqQNu7rGcU63bTF-48" value="" style="endArrow=none;html=1;rounded=0;" parent="1" edge="1">
          <mxGeometry width="50" height="50" relative="1" as="geometry">
            <mxPoint x="420" y="370.63" as="sourcePoint" />
            <mxPoint x="420" y="360.63" as="targetPoint" />
            <Array as="points">
              <mxPoint x="430" y="360.63" />
            </Array>
          </mxGeometry>
        </mxCell>
        <mxCell id="Ehv_EYqQNu7rGcU63bTF-49" value="" style="rounded=1;whiteSpace=wrap;html=1;rotation=90;" parent="1" vertex="1">
          <mxGeometry x="650" y="10" width="120" height="60" as="geometry" />
        </mxCell>
        <mxCell id="Ehv_EYqQNu7rGcU63bTF-51" value="" style="rounded=1;whiteSpace=wrap;html=1;rotation=90;" parent="1" vertex="1">
          <mxGeometry x="655" y="15" width="110" height="50" as="geometry" />
        </mxCell>
        <mxCell id="Ehv_EYqQNu7rGcU63bTF-54" value="" style="rounded=1;whiteSpace=wrap;html=1;arcSize=27;" parent="1" vertex="1">
          <mxGeometry x="693" y="-20" width="34" height="10" as="geometry" />
        </mxCell>
        <mxCell id="Ehv_EYqQNu7rGcU63bTF-57" value="" style="dashed=0;outlineConnect=0;html=1;align=center;labelPosition=center;verticalLabelPosition=bottom;verticalAlign=top;shape=mxgraph.weblogos.apple;fillColor=#1B1C1C;strokeColor=none" parent="1" vertex="1">
          <mxGeometry x="700" y="26.899999999999977" width="20" height="26.2" as="geometry" />
        </mxCell>
        <mxCell id="Ehv_EYqQNu7rGcU63bTF-58" value="" style="shape=image;html=1;verticalAlign=top;verticalLabelPosition=bottom;labelBackgroundColor=#ffffff;imageAspect=0;aspect=fixed;image=https://icons.diagrams.net/icon-cache1/Ionicons_Fill_Vol_2-2187/logo-xbox-1442.svg" parent="1" vertex="1">
          <mxGeometry x="250" y="333" width="12" height="12" as="geometry" />
        </mxCell>
        <mxCell id="Ehv_EYqQNu7rGcU63bTF-61" value="" style="verticalLabelPosition=bottom;verticalAlign=top;html=1;shadow=0;dashed=0;strokeWidth=1;shape=mxgraph.android.phone2;strokeColor=#c0c0c0;fillColor=#000000;" parent="1" vertex="1">
          <mxGeometry x="540" y="295" width="60" height="120" as="geometry" />
        </mxCell>
        <mxCell id="Ehv_EYqQNu7rGcU63bTF-64" value="" style="verticalLabelPosition=bottom;verticalAlign=top;html=1;shadow=0;dashed=0;strokeWidth=1;shape=mxgraph.android.phone2;strokeColor=#c0c0c0;fillColor=#000000;" parent="1" vertex="1">
          <mxGeometry x="680" y="245" width="60" height="120" as="geometry" />
        </mxCell>
        <mxCell id="Ehv_EYqQNu7rGcU63bTF-67" value="&lt;div&gt;&lt;div&gt;IP:&lt;div&gt;192.168.100.9&lt;/div&gt;&lt;/div&gt;&lt;/div&gt;" style="text;strokeColor=none;align=center;fillColor=none;html=1;verticalAlign=middle;whiteSpace=wrap;rounded=0;" parent="1" vertex="1">
          <mxGeometry x="660" y="-80" width="100" height="80" as="geometry" />
        </mxCell>
        <mxCell id="Ehv_EYqQNu7rGcU63bTF-68" value="&lt;div&gt;&lt;div&gt;IP:&lt;div&gt;192.168.100.16&lt;/div&gt;&lt;/div&gt;&lt;/div&gt;" style="text;strokeColor=none;align=center;fillColor=none;html=1;verticalAlign=middle;whiteSpace=wrap;rounded=0;" parent="1" vertex="1">
          <mxGeometry x="520" y="240" width="100" height="80" as="geometry" />
        </mxCell>
        <mxCell id="Ehv_EYqQNu7rGcU63bTF-69" value="&lt;div&gt;&lt;div&gt;IP:&lt;div&gt;192.168.100.4&lt;/div&gt;&lt;/div&gt;&lt;/div&gt;" style="text;strokeColor=none;align=center;fillColor=none;html=1;verticalAlign=middle;whiteSpace=wrap;rounded=0;" parent="1" vertex="1">
          <mxGeometry x="356" y="253" width="100" height="80" as="geometry" />
        </mxCell>
        <mxCell id="Ehv_EYqQNu7rGcU63bTF-70" value="&lt;div&gt;&lt;div&gt;IP:&lt;div&gt;192.168.100.14&lt;/div&gt;&lt;/div&gt;&lt;/div&gt;" style="text;strokeColor=none;align=center;fillColor=none;html=1;verticalAlign=middle;whiteSpace=wrap;rounded=0;" parent="1" vertex="1">
          <mxGeometry x="660" y="190" width="100" height="80" as="geometry" />
        </mxCell>
        <mxCell id="uIRJudRjFVnJ81FQusIU-1" value="&lt;div&gt;&lt;div&gt;IP:&lt;div&gt;192.168.100.11&lt;/div&gt;&lt;/div&gt;&lt;/div&gt;" style="text;strokeColor=none;align=center;fillColor=none;html=1;verticalAlign=middle;whiteSpace=wrap;rounded=0;" vertex="1" parent="1">
          <mxGeometry x="130" y="250" width="100" height="80" as="geometry" />
        </mxCell>
        <mxCell id="uIRJudRjFVnJ81FQusIU-3" value="" style="endArrow=none;html=1;rounded=0;entryX=0;entryY=1;entryDx=0;entryDy=0;" edge="1" parent="1" target="Ehv_EYqQNu7rGcU63bTF-4">
          <mxGeometry width="50" height="50" relative="1" as="geometry">
            <mxPoint x="230" y="310" as="sourcePoint" />
            <mxPoint x="280" y="260" as="targetPoint" />
          </mxGeometry>
        </mxCell>
        <mxCell id="uIRJudRjFVnJ81FQusIU-4" value="ethernet" style="text;html=1;align=center;verticalAlign=middle;resizable=0;points=[];autosize=1;strokeColor=none;fillColor=none;rotation=-45;" vertex="1" parent="1">
          <mxGeometry x="262" y="210" width="70" height="30" as="geometry" />
        </mxCell>
        <mxCell id="uIRJudRjFVnJ81FQusIU-5" value="" style="endArrow=none;dashed=1;html=1;dashPattern=1 3;strokeWidth=2;rounded=0;entryX=0.25;entryY=1;entryDx=0;entryDy=0;" edge="1" parent="1" source="Ehv_EYqQNu7rGcU63bTF-69" target="Ehv_EYqQNu7rGcU63bTF-4">
          <mxGeometry width="50" height="50" relative="1" as="geometry">
            <mxPoint x="390" y="250" as="sourcePoint" />
            <mxPoint x="440" y="200" as="targetPoint" />
          </mxGeometry>
        </mxCell>
        <mxCell id="uIRJudRjFVnJ81FQusIU-6" value="" style="endArrow=none;dashed=1;html=1;dashPattern=1 3;strokeWidth=2;rounded=0;exitX=0.75;exitY=1;exitDx=0;exitDy=0;" edge="1" parent="1" source="Ehv_EYqQNu7rGcU63bTF-4">
          <mxGeometry width="50" height="50" relative="1" as="geometry">
            <mxPoint x="510" y="315" as="sourcePoint" />
            <mxPoint x="560" y="265" as="targetPoint" />
          </mxGeometry>
        </mxCell>
        <mxCell id="uIRJudRjFVnJ81FQusIU-7" value="" style="endArrow=none;dashed=1;html=1;dashPattern=1 3;strokeWidth=2;rounded=0;exitX=0.75;exitY=1;exitDx=0;exitDy=0;" edge="1" parent="1">
          <mxGeometry width="50" height="50" relative="1" as="geometry">
            <mxPoint x="515" y="142" as="sourcePoint" />
            <mxPoint x="670" y="280" as="targetPoint" />
          </mxGeometry>
        </mxCell>
        <mxCell id="uIRJudRjFVnJ81FQusIU-8" value="" style="endArrow=none;dashed=1;html=1;dashPattern=1 3;strokeWidth=2;rounded=0;exitX=0;exitY=0;exitDx=130;exitDy=30;exitPerimeter=0;entryX=0;entryY=0.5;entryDx=0;entryDy=0;" edge="1" parent="1" source="Ehv_EYqQNu7rGcU63bTF-11" target="Ehv_EYqQNu7rGcU63bTF-4">
          <mxGeometry width="50" height="50" relative="1" as="geometry">
            <mxPoint x="272" y="10" as="sourcePoint" />
            <mxPoint x="322" y="-40" as="targetPoint" />
          </mxGeometry>
        </mxCell>
        <mxCell id="uIRJudRjFVnJ81FQusIU-10" value="" style="sketch=0;pointerEvents=1;shadow=0;dashed=0;html=1;strokeColor=none;fillColor=#505050;labelPosition=center;verticalLabelPosition=bottom;verticalAlign=top;outlineConnect=0;align=center;shape=mxgraph.office.devices.tv;" vertex="1" parent="1">
          <mxGeometry x="80" y="122.45" width="130" height="87.55" as="geometry" />
        </mxCell>
        <mxCell id="uIRJudRjFVnJ81FQusIU-11" value="&lt;font style=&quot;font-size: 36px;&quot;&gt;LG&lt;/font&gt;" style="text;strokeColor=none;align=center;fillColor=none;html=1;verticalAlign=middle;whiteSpace=wrap;rounded=0;" vertex="1" parent="1">
          <mxGeometry x="115" y="142.45" width="60" height="30" as="geometry" />
        </mxCell>
        <mxCell id="uIRJudRjFVnJ81FQusIU-12" value="" style="endArrow=none;dashed=1;html=1;dashPattern=1 3;strokeWidth=2;rounded=0;exitX=0;exitY=0;exitDx=130;exitDy=30;exitPerimeter=0;entryX=0;entryY=0.75;entryDx=0;entryDy=0;" edge="1" parent="1" target="Ehv_EYqQNu7rGcU63bTF-4">
          <mxGeometry width="50" height="50" relative="1" as="geometry">
            <mxPoint x="215" y="163" as="sourcePoint" />
            <mxPoint x="385" y="270" as="targetPoint" />
          </mxGeometry>
        </mxCell>
        <mxCell id="uIRJudRjFVnJ81FQusIU-15" value="" style="endArrow=none;dashed=1;html=1;dashPattern=1 3;strokeWidth=2;rounded=0;exitX=1;exitY=0.25;exitDx=0;exitDy=0;entryX=0.417;entryY=1.05;entryDx=0;entryDy=0;entryPerimeter=0;" edge="1" parent="1" source="Ehv_EYqQNu7rGcU63bTF-4" target="Ehv_EYqQNu7rGcU63bTF-49">
          <mxGeometry width="50" height="50" relative="1" as="geometry">
            <mxPoint x="510" y="122.45" as="sourcePoint" />
            <mxPoint x="560" y="72.45" as="targetPoint" />
          </mxGeometry>
        </mxCell>
      </root>
    </mxGraphModel>
  </diagram>
</mxfile>
